<?xml version="1.0" encoding="UTF-8" standalone="no"?>
<!-- Created with Inkscape (http://www.inkscape.org/) -->

<svg
   version="1.1"
   id="svg1"
   width="160"
   height="160"
   viewBox="0 0 160 160"
   sodipodi:docname="Anvil logo white green background.rounded.svg"
   inkscape:version="1.4.3 (0d15f75, 2025-12-25)"
   xmlns:inkscape="http://www.inkscape.org/namespaces/inkscape"
   xmlns:sodipodi="http://sodipodi.sourceforge.net/DTD/sodipodi-0.dtd"
   xmlns="http://www.w3.org/2000/svg"
   xmlns:svg="http://www.w3.org/2000/svg">
  <defs
     id="defs1">
    <inkscape:path-effect
       effect="fillet_chamfer"
       id="path-effect3"
       is_visible="true"
       lpeversion="1"
       nodesatellites_param="F,0,0,1,0,0,0,1 @ F,0,0,1,0,30.159934,0,1 @ F,0,0,1,0,0,0,1 @ F,0,0,1,0,29.104699,0,1 @ F,0,0,1,0,0,0,1 @ F,0,0,1,0,29.896125,0,1 @ F,0,0,1,0,0,0,1 @ F,0,1,1,0,29.896125,0,1 | F,0,0,1,0,0,0,1 @ F,0,0,1,0,0,0,1 @ F,0,0,1,0,0,0,1 @ F,0,0,1,0,0,0,1 @ F,0,0,1,0,0,0,1 @ F,0,0,1,0,0,0,1 @ F,0,0,1,0,0,0,1 @ F,0,0,1,0,0,0,1 @ F,0,0,1,0,0,0,1 @ F,0,0,1,0,0,0,1 @ F,0,0,1,0,0,0,1 @ F,0,0,1,0,0,0,1 @ F,0,0,1,0,0,0,1 @ F,0,0,1,0,0,0,1 @ F,0,0,1,0,0,0,1 @ F,0,0,1,0,0,0,1 @ F,0,0,1,0,0,0,1 @ F,0,0,1,0,0,0,1 @ F,0,0,1,0,0,0,1 @ F,0,0,1,0,0,0,1 @ F,0,0,1,0,0,0,1 @ F,0,0,1,0,0,0,1 @ F,0,0,1,0,0,0,1 @ F,0,0,1,0,0,0,1 @ F,0,0,1,0,0,0,1 | F,0,0,1,0,0,0,1 @ F,0,0,1,0,0,0,1 @ F,0,0,1,0,0,0,1 @ F,0,0,1,0,0,0,1 @ F,0,0,1,0,0,0,1 @ F,0,0,1,0,0,0,1"
       radius="0"
       unit="px"
       method="auto"
       mode="F"
       chamfer_steps="1"
       flexible="false"
       use_knot_distance="true"
       apply_no_radius="true"
       apply_with_radius="true"
       only_selected="false"
       hide_knots="false" />
    <inkscape:path-effect
       effect="fillet_chamfer"
       id="path-effect2"
       is_visible="true"
       lpeversion="1"
       nodesatellites_param="F,0,0,1,0,0,0,1 @ F,0,0,1,0,0,0,1 @ F,0,0,1,0,0,0,1 @ F,0,0,1,0,27.389942,0,1 @ F,0,0,1,0,0,0,1 @ F,0,0,1,0,0,0,1 @ F,0,0,1,0,0,0,1 @ F,0,0,1,0,0,0,1 | F,0,0,1,0,0,0,1 @ F,0,0,1,0,0,0,1 @ F,0,0,1,0,0,0,1 @ F,0,0,1,0,0,0,1 @ F,0,0,1,0,0,0,1 @ F,0,0,1,0,0,0,1 @ F,0,0,1,0,0,0,1 @ F,0,0,1,0,0,0,1 @ F,0,0,1,0,0,0,1 @ F,0,0,1,0,0,0,1 @ F,0,0,1,0,0,0,1 @ F,0,0,1,0,0,0,1 @ F,0,0,1,0,0,0,1 @ F,0,0,1,0,0,0,1 @ F,0,0,1,0,0,0,1 @ F,0,0,1,0,0,0,1 @ F,0,0,1,0,0,0,1 @ F,0,0,1,0,0,0,1 @ F,0,0,1,0,0,0,1 @ F,0,0,1,0,0,0,1 @ F,0,0,1,0,0,0,1 @ F,0,0,1,0,0,0,1 @ F,0,0,1,0,0,0,1 @ F,0,0,1,0,0,0,1 @ F,0,0,1,0,0,0,1 | F,0,0,1,0,0,0,1 @ F,0,0,1,0,0,0,1 @ F,0,0,1,0,0,0,1 @ F,0,0,1,0,0,0,1 @ F,0,0,1,0,0,0,1 @ F,0,0,1,0,0,0,1"
       radius="0"
       unit="px"
       method="auto"
       mode="F"
       chamfer_steps="1"
       flexible="false"
       use_knot_distance="true"
       apply_no_radius="true"
       apply_with_radius="true"
       only_selected="false"
       hide_knots="false" />
  </defs>
  <sodipodi:namedview
     id="namedview1"
     pagecolor="#ffffff"
     bordercolor="#000000"
     borderopacity="0.25"
     inkscape:showpageshadow="2"
     inkscape:pageopacity="0.0"
     inkscape:pagecheckerboard="0"
     inkscape:deskcolor="#d1d1d1"
     showgrid="false"
     inkscape:zoom="7.58125"
     inkscape:cx="79.934048"
     inkscape:cy="79.934048"
     inkscape:window-width="2400"
     inkscape:window-height="1494"
     inkscape:window-x="-11"
     inkscape:window-y="-11"
     inkscape:window-maximized="1"
     inkscape:current-layer="g1" />
  <g
     inkscape:groupmode="layer"
     inkscape:label="Image"
     id="g1">
    <rect
       style="fill:#ffffff;fill-opacity:1"
       id="rect3"
       width="134.93817"
       height="97.477325"
       x="8.5737839"
       y="33.107998" />
    <path
       style="fill:#40916c;fill-opacity:1"
       d="M 0,80 V 30.159934 A 30.159934,30.159934 135 0 1 30.159934,0 H 80 130.8953 A 29.104699,29.104699 45 0 1 160,29.104699 V 80 130.10388 A 29.896125,29.896125 135 0 1 130.10388,160 H 80 29.896125 A 29.896125,29.896125 45 0 1 0,130.10388 Z m 61.719695,32.53974 c 4.060373,-7.791 12.150232,-11.97181 20.040305,-10.35677 5.653693,1.15727 10.673259,4.90429 13.365389,9.97703 1.358606,2.56 1.358606,2.56 9.957431,2.6453 6.07617,0.0603 8.72767,-0.0216 9.038,-0.27918 0.33457,-0.27766 0.43918,-1.44857 0.43918,-4.91571 0,-5.21262 0.21788,-4.77611 -3.36,-6.7316 -3.49968,-1.91275 -6.57041,-4.102856 -8.36831,-5.968444 -3.077341,-3.193184 -5.234441,-7.438996 -5.690794,-11.201161 -0.441268,-3.637812 1.064132,-8.293815 3.611974,-11.171359 1.7184,-1.940763 3.75086,-3.090101 10.63109,-6.011787 9.62713,-4.088155 26.55795,-11.424206 28.51344,-12.354747 1.81739,-0.864832 1.81739,-0.864832 2.03294,-2.877559 0.13884,-1.296531 0.0859,-2.254877 -0.14866,-2.69324 C 141.41748,49.92 141.41748,49.92 96.967627,49.92 c -34.299054,0 -44.504212,0.08795 -44.687876,0.385125 -0.40975,0.662989 -0.570122,24.693349 -0.169789,25.441379 0.214612,0.401005 0.825902,0.74557 1.561367,0.880093 1.60597,0.293746 3.730428,1.556199 4.545857,2.701363 1.01923,1.431377 1.722325,4.625803 1.467336,6.666663 -0.811014,6.491139 -5.57974,12.277467 -14.169918,17.193647 -1.454967,0.83268 -2.786967,1.7785 -2.96,2.10181 -0.173032,0.32332 -0.314604,2.46216 -0.314604,4.75298 0,3.62813 0.0722,4.20756 0.56,4.49415 0.354813,0.20845 3.715371,0.30222 9.171714,0.2559 8.611714,-0.0731 8.611714,-0.0731 9.747981,-2.25337 z M 47.603943,64.08 47.52,52.32 31.09751,52.237082 c -16.42249,-0.08292 -16.42249,-0.08292 -16.199664,0.64 2.000793,6.491177 8.652434,14.037518 15.822154,17.950362 4.284248,2.338109 12.41755,4.939392 15.603943,4.990626 1.363942,0.02193 1.363942,0.02193 1.28,-11.73807 z"
       id="path1"
       inkscape:path-effect="#path-effect3"
       inkscape:original-d="M 0,80 V 0 h 80 80 v 80 80 H 80 0 Z m 61.719695,32.53974 c 4.060373,-7.791 12.150232,-11.97181 20.040305,-10.35677 5.653693,1.15727 10.673259,4.90429 13.365389,9.97703 1.358606,2.56 1.358606,2.56 9.957431,2.6453 6.07617,0.0603 8.72767,-0.0216 9.038,-0.27918 0.33457,-0.27766 0.43918,-1.44857 0.43918,-4.91571 0,-5.21262 0.21788,-4.77611 -3.36,-6.7316 -3.49968,-1.91275 -6.57041,-4.102856 -8.36831,-5.968444 -3.077341,-3.193184 -5.234441,-7.438996 -5.690794,-11.201161 -0.441268,-3.637812 1.064132,-8.293815 3.611974,-11.171359 1.7184,-1.940763 3.75086,-3.090101 10.63109,-6.011787 9.62713,-4.088155 26.55795,-11.424206 28.51344,-12.354747 1.81739,-0.864832 1.81739,-0.864832 2.03294,-2.877559 0.13884,-1.296531 0.0859,-2.254877 -0.14866,-2.69324 C 141.41748,49.92 141.41748,49.92 96.967627,49.92 c -34.299054,0 -44.504212,0.08795 -44.687876,0.385125 -0.40975,0.662989 -0.570122,24.693349 -0.169789,25.441379 0.214612,0.401005 0.825902,0.74557 1.561367,0.880093 1.60597,0.293746 3.730428,1.556199 4.545857,2.701363 1.01923,1.431377 1.722325,4.625803 1.467336,6.666663 -0.811014,6.491139 -5.57974,12.277467 -14.169918,17.193647 -1.454967,0.83268 -2.786967,1.7785 -2.96,2.10181 -0.173032,0.32332 -0.314604,2.46216 -0.314604,4.75298 0,3.62813 0.0722,4.20756 0.56,4.49415 0.354813,0.20845 3.715371,0.30222 9.171714,0.2559 8.611714,-0.0731 8.611714,-0.0731 9.747981,-2.25337 z M 47.603943,64.08 47.52,52.32 31.09751,52.237082 c -16.42249,-0.08292 -16.42249,-0.08292 -16.199664,0.64 2.000793,6.491177 8.652434,14.037518 15.822154,17.950362 4.284248,2.338109 12.41755,4.939392 15.603943,4.990626 1.363942,0.02193 1.363942,0.02193 1.28,-11.73807 z" />
  </g>
</svg>
