<svg xmlns="http://www.w3.org/2000/svg" viewBox="0 0 36 36">
  <path d="m15.5106,20.4914a3.52,3.52 0,1 1,2.4891 1.031" fill="none" stroke="#ffffff" stroke-width="1.15"/>
  <path d="m20.2447,12.5822a5.8667,5.8667 0,0 1,3.175 3.175" fill="none" stroke="#ffffff" stroke-width="1.15"/>
  <path d="m23.8663,18.0023a5.8667,5.8667 74.8465,0 1,-0.4466 2.245" fill="none" stroke="#ffffff" stroke-width="1.15"/>
  <path d="m20.2447,23.4224a5.8667,5.8667 0,0 1,-7.6652 -3.175" fill="none" stroke="#ffffff" stroke-width="1.15"/>
  <path d="m12.5796,15.7573a5.8667,5.8667 0,0 1,3.175 -3.175" fill="none" stroke="#ffffff" stroke-width="1.15"/>
  <path d="m21.1427,10.4142a8.2133,8.2133 0,1 1,-3.1431 -0.6252" fill="none" stroke="#ffffff" stroke-width="1.15"/>
  <path d="M17.9996,12.1356L17.9996,14.4823" fill="none" stroke="#ffffff" stroke-width="1.15"/>
  <path d="M21.1427,10.4142L20.2447,12.5822" fill="none" stroke="#ffffff" stroke-width="1.15"/>
  <path d="M23.8663,18.0023L21.5196,18.0023" fill="none" stroke="#ffffff" stroke-width="1.15"/>
  <path d="M23.8073,23.81L22.148,22.1506" fill="none" stroke="#ffffff" stroke-width="1.15"/>
  <path d="M21.1427,25.5908L20.2447,23.4224" fill="none" stroke="#ffffff" stroke-width="1.15"/>
  <path d="M17.9996,23.869L17.9996,21.5223" fill="none" stroke="#ffffff" stroke-width="1.15"/>
  <path d="M12.133,18.0023L14.4796,18.0023" fill="none" stroke="#ffffff" stroke-width="1.15"/>
  <path d="M12.1919,12.1946L13.8513,13.854" fill="none" stroke="#ffffff" stroke-width="1.15"/>
</svg>
