<svg xmlns="http://www.w3.org/2000/svg" viewBox="0 0 36 36">
  <path d="m12.1019,19.6509q-0.9257,-0.5335 -0.9257,-1.6006 0,-1.0671 0.9257,-1.6006 0.4637,-0.2686 0.9257,-0.2686 0.4619,0 0.9257,0.2686 0.9257,0.5335 0.9257,1.6006 0,1.0671 -0.9257,1.6006 -0.4637,0.2686 -0.9257,0.2686 -0.4619,0 -0.9257,-0.2686z" fill="#ffffff"/>
  <path d="m17.0742,19.6509q-0.9257,-0.5335 -0.9257,-1.6006 0,-1.0671 0.9257,-1.6006 0.4637,-0.2686 0.9257,-0.2686t0.9257,0.2686q0.9257,0.5335 0.9257,1.6006 0,1.0671 -0.9257,1.6006 -0.4637,0.2686 -0.9257,0.2686t-0.9257,-0.2686z" fill="#ffffff"/>
  <path d="m22.0471,19.6509q-0.9257,-0.5335 -0.9257,-1.6006 0,-1.0671 0.9257,-1.6006 0.4637,-0.2686 0.9257,-0.2686 0.4619,0 0.9257,0.2686 0.9257,0.5335 0.9257,1.6006 0,1.0671 -0.9257,1.6006 -0.4637,0.2686 -0.9257,0.2686 -0.4619,0 -0.9257,-0.2686z" fill="#ffffff"/>
</svg>
