<svg xmlns="http://www.w3.org/2000/svg" viewBox="0 0 36 36">
  <path d="M18,10.6667A4.8125,4.8125 0,0 1,22.8125 15.4792A4.8125,4.8125 0,0 1,18 20.2917A4.8125,4.8125 0,0 1,13.1875 15.4792A4.8125,4.8125 0,0 1,18 10.6667M18,12.0417A3.4375,3.4375 0,0 0,14.5625 15.4792A3.4375,3.4375 0,0 0,18 18.9167A3.4375,3.4375 0,0 0,21.4375 15.4792A3.4375,3.4375 0,0 0,18 12.0417M18,13.4167A2.0625,2.0625 0,0 1,20.0625 15.4792A2.0625,2.0625 0,0 1,18 17.5417A2.0625,2.0625 0,0 1,15.9375 15.4792A2.0625,2.0625 0,0 1,18 13.4167M13.875,24.4167A1.375,1.375 0,0 1,12.5 23.0417C12.5,22.7804 12.5688,22.5398 12.6994,22.3335L13.9506,20.161C15.0369,21.096 16.4531,21.6667 18,21.6667C19.5469,21.6667 20.9631,21.096 22.0494,20.161L23.3006,22.3335C23.4312,22.5398 23.5,22.7804 23.5,23.0417A1.375,1.375 0,0 1,22.125 24.4167L13.875,24.4167Z" fill="#ffffff"/>
</svg>
